<?xml version="1.0" standalone="no"?><!DOCTYPE svg PUBLIC "-//W3C//DTD SVG 1.1//EN" "http://www.w3.org/Graphics/SVG/1.1/DTD/svg11.dtd"><svg t="1627379345065" class="icon" viewBox="0 0 1027 1024" version="1.1" xmlns="http://www.w3.org/2000/svg" p-id="2927" xmlns:xlink="http://www.w3.org/1999/xlink" width="200.5859375" height="200"><defs><style type="text/css">@font-face { font-family: feedback-iconfont; src: url("//at.alicdn.com/t/font_1031158_1uhr8ri0pk5.eot?#iefix") format("embedded-opentype"), url("//at.alicdn.com/t/font_1031158_1uhr8ri0pk5.woff2") format("woff2"), url("//at.alicdn.com/t/font_1031158_1uhr8ri0pk5.woff") format("woff"), url("//at.alicdn.com/t/font_1031158_1uhr8ri0pk5.ttf") format("truetype"), url("//at.alicdn.com/t/font_1031158_1uhr8ri0pk5.svg#iconfont") format("svg"); }
</style></defs><path d="M836.404907 136.533333c-3.413333 0-6.826667 0-6.826667 3.413334l-170.666667 92.16-23.893333-58.026667c6.826667-10.24 13.653333-23.893333 13.653333-37.546667 0-27.306667-23.893333-51.2-51.2-51.2S546.271573 109.226667 546.271573 136.533333s23.893333 51.2 51.2 51.2h3.413334l27.306666 61.44-170.666666 92.16-27.306667-64.853333c6.826667-10.24 13.653333-23.893333 13.653333-37.546667 0-27.306667-23.893333-51.2-51.2-51.2S341.471573 211.626667 341.471573 238.933333s23.893333 51.2 51.2 51.2h3.413334l30.72 68.266667-170.666667 92.16-30.72-75.093333c6.826667-6.826667 13.653333-20.48 13.653333-34.133334 0-27.306667-23.893333-51.2-51.2-51.2S136.671573 314.026667 136.671573 341.333333s23.893333 51.2 51.2 51.2h3.413334l30.72 75.093334-112.64 61.44-68.266667 34.133333c-6.826667 6.826667-10.24 17.066667-3.413333 23.893333 3.413333 6.826667 10.24 10.24 13.653333 10.24 3.413333 0 6.826667 0 6.826667-3.413333l54.613333-27.306667 105.813333 208.213334-208.213333 129.706666c-10.24 6.826667-13.653333 17.066667-6.826667 27.306667 3.413333 6.826667 10.24 6.826667 13.653334 6.826667 3.413333 0 6.826667 0 10.24-3.413334l218.453333-133.12h252.586667c27.306667 0 61.44-3.413333 81.92-44.373333l133.12-228.693333h126.293333c98.986667 0 187.733333-95.573333 187.733333-204.8C1024.13824 225.28 935.391573 136.533333 836.404907 136.533333zM303.924907 593.92c-3.413333 3.413333-6.826667 6.826667-13.653334 6.826667s-10.24-3.413333-13.653333-3.413334c0-6.826667-3.413333-13.653333-3.413333-17.066666s0-10.24 3.413333-10.24c6.826667-6.826667 17.066667-6.826667 23.893333 0 6.826667 0 6.826667 6.826667 6.826667 10.24s0 10.24-3.413333 13.653333z m204.8-102.4c-3.413333 3.413333-6.826667 6.826667-13.653334 6.826667s-10.24-3.413333-13.653333-3.413334c0-6.826667-3.413333-13.653333-3.413333-17.066666s0-10.24 3.413333-10.24c6.826667-6.826667 17.066667-6.826667 23.893333 0 6.826667 0 6.826667 6.826667 6.826667 10.24s0 10.24-3.413333 13.653333z m204.8-102.4c-3.413333 3.413333-6.826667 6.826667-10.24 6.826667-3.413333 0-10.24-3.413333-13.653334-6.826667-3.413333-3.413333-6.826667-10.24-6.826666-13.653333s0-10.24 3.413333-10.24c6.826667-6.826667 17.066667-6.826667 23.893333 0 6.826667 0 6.826667 6.826667 6.826667 10.24s0 10.24-3.413333 13.653333z" fill="" p-id="2928"></path></svg>